{
  "asset": {
    "extras": {
      "author": "BamPistache (https://sketchfab.com/karinkreeft8)",
      "license": "CC-BY-NC-4.0 (http://creativecommons.org/licenses/by-nc/4.0/)",
      "source": "https://sketchfab.com/3d-models/earth-0caafb7e837047a688a3e504c0ea74af",
      "title": "Earth"
    },
    "generator": "gltfeditor.com",
    "version": "2.0"
  },
  "buffers": [
    {
      "uri": "data:application/octet-stream;base64,",
      "byteLength": 343052
    }
  ],
  "bufferViews": [
    {
      "buffer": 0,
      "byteOffset": 73200,
      "byteLength": 130320,
      "target": 34962,
      "byteStride": 12
    },
    {
      "buffer": 0,
      "byteOffset": 29760,
      "byteLength": 43440,
      "target": 34962,
      "byteStride": 8
    },
    {
      "buffer": 0,
      "byteOffset": 0,
      "byteLength": 29760,
      "target": 34963
    }
  ],
  "accessors": [
    {
      "bufferView": 0,
      "byteOffset": 27384,
      "componentType": 5126,
      "normalized": false,
      "count": 2282,
      "max": [
        0.9988023042678833,
        0.9903720021247864,
        0.9999948143959045
      ],
      "min": [
        -0.9988023042678833,
        -0.9785518646240234,
        -0.9999947547912598
      ],
      "type": "VEC3"
    },
    {
      "bufferView": 0,
      "byteOffset": 0,
      "componentType": 5126,
      "normalized": false,
      "count": 2282,
      "max": [
        8.406753540039062,
        8.52292537689209,
        8.494434356689453
      ],
      "min": [
        -8.406753540039062,
        -8.423351287841797,
        -8.494434356689453
      ],
      "type": "VEC3"
    },
    {
      "bufferView": 1,
      "byteOffset": 0,
      "componentType": 5126,
      "normalized": false,
      "count": 2282,
      "max": [
        0.9126057028770447,
        0.9773709177970886
      ],
      "min": [
        0.0018216681201010942,
        0.00199203216470778
      ],
      "type": "VEC2"
    },
    {
      "bufferView": 2,
      "byteOffset": 0,
      "componentType": 5125,
      "normalized": false,
      "count": 2952,
      "max": [
        2281
      ],
      "min": [
        0
      ],
      "type": "SCALAR"
    },
    {
      "bufferView": 0,
      "byteOffset": 92544,
      "componentType": 5126,
      "normalized": false,
      "count": 3148,
      "max": [
        0.9977114200592041,
        0.9973602890968323,
        0.9938428997993469
      ],
      "min": [
        -0.9944907426834106,
        -0.9895349740982056,
        -0.9970706701278687
      ],
      "type": "VEC3"
    },
    {
      "bufferView": 0,
      "byteOffset": 54768,
      "componentType": 5126,
      "normalized": false,
      "count": 3148,
      "max": [
        8.583353042602539,
        8.588372230529785,
        8.79779052734375
      ],
      "min": [
        -8.742206573486328,
        -9.351238250732422,
        -8.453768730163574
      ],
      "type": "VEC3"
    },
    {
      "bufferView": 1,
      "byteOffset": 18256,
      "componentType": 5126,
      "normalized": false,
      "count": 3148,
      "max": [
        0.9126057028770447,
        0.9980080127716064
      ],
      "min": [
        0.0018215683521702886,
        0.017133181914687157
      ],
      "type": "VEC2"
    },
    {
      "bufferView": 2,
      "byteOffset": 11808,
      "componentType": 5125,
      "normalized": false,
      "count": 4488,
      "max": [
        3147
      ],
      "min": [
        0
      ],
      "type": "SCALAR"
    }
  ],
  "scene": 0,
  "scenes": [
    {
      "nodes": [
        5
      ],
      "name": "Sketchfab_Scene"
    }
  ],
  "nodes": [
    {
      "name": "earth4_blinn1_0",
      "matrix": [
        1.9440927505493164,
        0,
        0,
        0,
        0,
        1.9440927505493164,
        0,
        0,
        0,
        0,
        1.9440927505493164,
        0,
        0,
        0,
        0,
        1
      ],
      "mesh": 0
    },
    {
      "name": "earth4_lambert1_0",
      "matrix": [
        1.940950870513916,
        0,
        0,
        0,
        0,
        1.940950870513916,
        0,
        0,
        0,
        0,
        1.940950870513916,
        0,
        0,
        0,
        0,
        1
      ],
      "mesh": 1
    },
    {
      "name": "earth4",
      "children": [
        0,
        1
      ]
    },
    {
      "name": "RootNode",
      "children": [
        2
      ]
    },
    {
      "name": "24632585e7144c48909cd1937efa1a28.fbx",
      "children": [
        3
      ],
      "matrix": [
        1,
        0,
        0,
        0,
        0,
        3.422854177870249e-8,
        0.9999999403953552,
        0,
        0,
        -0.9999999403953552,
        3.422854177870249e-8,
        0,
        0,
        0,
        0,
        1
      ]
    },
    {
      "name": "Sketchfab_model",
      "children": [
        4
      ],
      "matrix": [
        1,
        0,
        0,
        0,
        0,
        3.422854177870249e-8,
        -0.9999999403953552,
        0,
        0,
        0.9999999403953552,
        3.422854177870249e-8,
        0,
        0,
        0,
        0,
        1
      ]
    }
  ],
  "meshes": [
    {
      "primitives": [
        {
          "attributes": {
            "NORMAL": 0,
            "POSITION": 1,
            "TEXCOORD_0": 2
          },
          "material": 0,
          "mode": 4,
          "indices": 3
        }
      ]
    },
    {
      "primitives": [
        {
          "attributes": {
            "NORMAL": 4,
            "POSITION": 5,
            "TEXCOORD_0": 6
          },
          "material": 1,
          "mode": 4,
          "indices": 7
        }
      ]
    }
  ],
  "materials": [
    {
      "pbrMetallicRoughness": {
        "baseColorFactor": [
          1,
          1,
          1,
          1
        ],
        "metallicFactor": 0,
        "roughnessFactor": 1,
        "baseColorTexture": {
          "index": 0,
          "texCoord": 0
        },
        "metallicRoughnessTexture": {
          "index": 1,
          "texCoord": 0
        }
      },
      "emissiveFactor": [
        0.17254901960784313,
        0.49411764705882355,
        0.7058823529411765
      ],
      "alphaMode": "OPAQUE",
      "doubleSided": true,
      "extensions": {
        "KHR_materials_emissive_strength": {
          "emissiveStrength": 0.1
        }
      }
    },
    {
      "pbrMetallicRoughness": {
        "baseColorFactor": [
          1,
          1,
          1,
          1
        ],
        "metallicFactor": 0,
        "roughnessFactor": 1,
        "baseColorTexture": {
          "index": 2,
          "texCoord": 0
        },
        "metallicRoughnessTexture": {
          "index": 3,
          "texCoord": 0
        }
      },
      "emissiveFactor": [
        0.34509803921568627,
        0.7568627450980392,
        0.1450980392156863
      ],
      "alphaMode": "OPAQUE",
      "doubleSided": true,
      "extensions": {
        "KHR_materials_emissive_strength": {
          "emissiveStrength": 0.2
        }
      }
    }
  ],
  "textures": [
    {
      "sampler": 0,
      "source": 0
    },
    {
      "sampler": 1,
      "source": 1
    },
    {
      "sampler": 2,
      "source": 2
    },
    {
      "sampler": 3,
      "source": 3
    }
  ],
  "samplers": [
    {
      "magFilter": 9729,
      "minFilter": 9987,
      "wrapS": 10497,
      "wrapT": 10497
    },
    {
      "magFilter": 9729,
      "minFilter": 9987,
      "wrapS": 10497,
      "wrapT": 10497
    },
    {
      "magFilter": 9729,
      "minFilter": 9987,
      "wrapS": 10497,
      "wrapT": 10497
    },
    {
      "magFilter": 9729,
      "minFilter": 9987,
      "wrapS": 10497,
      "wrapT": 10497
    }
  ],
  "images": [
    {
      "uri": "data:image/png;base64,",
      "mimeType": "image/png"
    },
    {
      "uri": "data:image/png;base64,",
      "mimeType": "image/png"
    },
    {
      "uri": "data:image/png;base64,",
      "mimeType": "image/png"
    },
    {
      "uri": "data:image/png;base64,",
      "mimeType": "image/png"
    }
  ],
  "extensionsUsed": [
    "KHR_materials_emissive_strength"
  ]
}